<svg xmlns="http://www.w3.org/2000/svg" xmlns:xlink="http://www.w3.org/1999/xlink" width="1366" height="768" viewBox="0 0 1366 768"><defs><clipPath id="b"><rect width="1366" height="768"/></clipPath></defs><g id="a" clip-path="url(#b)"><rect width="1366" height="768" fill="#fff"/><g transform="translate(33 25)"><path d="M283,471.044l71.857,44.351L334.618,435Z" transform="translate(-105.427 -153.211)" fill="#4fc3f7" fill-rule="evenodd"/><path d="M0,36.044,71.857,80.395,51.618,0Z" transform="translate(1096.473 191.806) rotate(180)" fill="#7f90f4" fill-rule="evenodd"/><path d="M497,218.822l65.454-1.3L515.85,174Z" transform="translate(-194.048 -66.707)" fill="#31eab9" fill-rule="evenodd"/><path d="M0,44.11l64.743-1.276L18.645,0Z" transform="translate(1235.53 274.785) rotate(180)" fill="#31eab9" fill-rule="evenodd"/><path d="M1299,198.762l76.838-9.414L1347.377,139Z" transform="translate(-454.315 -55.485)" fill="#31eab9" fill-rule="evenodd"/><path d="M127,332.763l76.837-9.414L175.377,273Z" transform="translate(-69.645 -99.333)" fill="#7f90f4" fill-rule="evenodd"/><path d="M283,108l101.027,20.486-43.358,64.889Z" transform="translate(-105.204 -45.611)" fill="#4783f3" fill-rule="evenodd"/><path d="M0,0,101.027,20.486,57.669,85.375Z" transform="translate(1151.578 428.834) rotate(180)" fill="#4783f3" fill-rule="evenodd"/><path d="M158,623.32l68.3-21.066L192.25,560Z" transform="translate(-78.59 -194.486)" fill="#31eab9" fill-rule="evenodd"/><path d="M678,145.763l77.549-9.414L726.825,86Z" transform="translate(-252.914 -34.815)" fill="#4783f3" fill-rule="evenodd"/><path d="M0,63.32,68.3,42.254,34.25,0Z" transform="translate(724.703 81.778) rotate(180)" fill="#7f90f4" fill-rule="evenodd"/><path d="M1784.7,232.632a7.47,7.47,0,1,1-7.471,7.47A7.47,7.47,0,0,1,1784.7,232.632Zm27.035,0a7.47,7.47,0,1,1-7.471,7.47A7.469,7.469,0,0,1,1811.735,232.632Zm27.035,0a7.47,7.47,0,1,1-7.47,7.47A7.469,7.469,0,0,1,1838.77,232.632Zm27.036,0a7.47,7.47,0,1,1-7.471,7.47A7.47,7.47,0,0,1,1865.806,232.632Zm26.324,0a7.47,7.47,0,1,1-7.471,7.47A7.47,7.47,0,0,1,1892.13,232.632ZM1770.47,212a7.47,7.47,0,1,1-7.47,7.47A7.469,7.469,0,0,1,1770.47,212Zm27.035,0a7.47,7.47,0,1,1-7.47,7.47A7.469,7.469,0,0,1,1797.506,212Zm26.325,0a7.47,7.47,0,1,1-7.471,7.47A7.47,7.47,0,0,1,1823.83,212Zm27.035,0a7.47,7.47,0,1,1-7.471,7.47A7.469,7.469,0,0,1,1850.866,212Zm27.035,0a7.47,7.47,0,1,1-7.47,7.47A7.469,7.469,0,0,1,1877.9,212Z" transform="translate(-609.999 -78.927)" fill="#22c1a8" fill-rule="evenodd"/><path d="M682.7,20.632a7.47,7.47,0,1,1-7.471,7.47A7.47,7.47,0,0,1,682.7,20.632Zm27.035,0a7.47,7.47,0,1,1-7.471,7.47A7.469,7.469,0,0,1,709.736,20.632Zm27.035,0a7.47,7.47,0,1,1-7.47,7.47A7.469,7.469,0,0,1,736.77,20.632Zm27.036,0a7.47,7.47,0,1,1-7.471,7.47A7.47,7.47,0,0,1,763.807,20.632Zm26.324,0a7.47,7.47,0,1,1-7.471,7.47A7.47,7.47,0,0,1,790.13,20.632ZM668.47,0A7.47,7.47,0,1,1,661,7.47,7.469,7.469,0,0,1,668.47,0Zm27.035,0a7.47,7.47,0,1,1-7.47,7.47A7.469,7.469,0,0,1,695.506,0ZM721.83,0a7.47,7.47,0,1,1-7.471,7.47A7.47,7.47,0,0,1,721.83,0Zm27.035,0a7.47,7.47,0,1,1-7.471,7.47A7.469,7.469,0,0,1,748.866,0ZM775.9,0a7.47,7.47,0,1,1-7.47,7.47A7.469,7.469,0,0,1,775.9,0Z" transform="translate(-248.477 -10)" fill="#4783f3" fill-rule="evenodd"/><path d="M114.9,455.632a7.47,7.47,0,1,0,7.471,7.47A7.47,7.47,0,0,0,114.9,455.632Zm-27.035,0a7.47,7.47,0,1,0,7.471,7.47,7.469,7.469,0,0,0-7.471-7.47Zm-27.035,0a7.47,7.47,0,1,0,7.47,7.47A7.469,7.469,0,0,0,60.83,455.632Zm-27.036,0a7.47,7.47,0,1,0,7.471,7.47A7.47,7.47,0,0,0,33.794,455.632Zm-26.324,0a7.47,7.47,0,1,0,7.471,7.47,7.47,7.47,0,0,0-7.471-7.47ZM129.13,435a7.47,7.47,0,1,0,7.47,7.47A7.469,7.469,0,0,0,129.13,435Zm-27.035,0a7.47,7.47,0,1,0,7.47,7.47A7.469,7.469,0,0,0,102.094,435ZM75.77,435a7.47,7.47,0,1,0,7.471,7.47A7.47,7.47,0,0,0,75.77,435Zm-27.035,0a7.47,7.47,0,1,0,7.471,7.47A7.469,7.469,0,0,0,48.734,435ZM21.7,435a7.47,7.47,0,1,0,7.47,7.47A7.469,7.469,0,0,0,21.7,435Z" transform="translate(-33 -151.43)" fill="#4fc3f7" fill-rule="evenodd"/><path d="M1938.9,646.632a7.47,7.47,0,1,0,7.471,7.47A7.47,7.47,0,0,0,1938.9,646.632Zm-27.036,0a7.47,7.47,0,1,0,7.471,7.47A7.469,7.469,0,0,0,1911.864,646.632Zm-27.035,0a7.47,7.47,0,1,0,7.47,7.47A7.469,7.469,0,0,0,1884.83,646.632Zm-27.036,0a7.47,7.47,0,1,0,7.471,7.47A7.47,7.47,0,0,0,1857.794,646.632Zm-26.324,0a7.47,7.47,0,1,0,7.471,7.47A7.47,7.47,0,0,0,1831.47,646.632ZM1953.13,626a7.47,7.47,0,1,0,7.47,7.47A7.469,7.469,0,0,0,1953.13,626Zm-27.035,0a7.47,7.47,0,1,0,7.47,7.47A7.469,7.469,0,0,0,1926.094,626Zm-26.325,0a7.47,7.47,0,1,0,7.471,7.47A7.47,7.47,0,0,0,1899.77,626Zm-27.035,0a7.47,7.47,0,1,0,7.471,7.47A7.469,7.469,0,0,0,1872.734,626Zm-27.035,0a7.47,7.47,0,1,0,7.47,7.47A7.469,7.469,0,0,0,1845.7,626Z" transform="translate(-627.6 -213.529)" fill="#4783f3" fill-rule="evenodd"/></g></g></svg>